<svg xmlns="http://www.w3.org/2000/svg" width="960" height="960" style=""><rect id="backgroundrect" width="100%" height="100%" x="0" y="0" fill="none" stroke="none"/><g class="currentLayer" style=""><title>Layer 1</title><path d="M182.81817343521118,31.421965301036835 h664.144 C928.6571734352112,31.421965301036835 994.8901734352112,97.65196530103684 994.8901734352112,179.35096530103684 v664.143 C994.8901734352112,925.1899653010369 928.6571734352112,991.4219653010368 846.9621734352112,991.4219653010368 H182.81817343521118 C101.12017343521119,991.4219653010368 34.89017343521118,925.1899653010369 34.89017343521118,843.4929653010369 V179.35096530103684 C34.89017343521118,97.65196530103684 101.12017343521119,31.421965301036835 182.81817343521118,31.421965301036835 " fill="none" id="svg_1" class="selected" stroke-width="1" stroke="none"/><path d="M503.946 704.029h39.269s11.859-1.307 17.923-7.831c5.573-5.996 5.396-17.249 5.396-17.249s-.769-52.692 23.683-60.452c24.113-7.647 55.07 50.925 87.88 73.449 24.812 17.039 43.667 13.31 43.667 13.31l87.739-1.227s45.895-2.832 24.132-38.917c-1.782-2.947-12.679-26.693-65.238-75.48-55.02-51.062-47.644-42.801 18.626-131.128 40.358-53.79 56.49-86.628 51.449-100.691-4.803-13.399-34.489-9.86-34.489-9.86l-98.786.611s-7.328-.998-12.756 2.25c-5.31 3.177-8.717 10.599-8.717 10.599s-15.642 41.622-36.486 77.024c-43.988 74.693-61.58 78.647-68.771 74.002-16.729-10.811-12.549-43.422-12.549-66.596 0-72.389 10.98-102.57-21.381-110.384-10.737-2.591-18.646-4.305-46.11-4.585-35.25-.358-65.078.108-81.971 8.384-11.239 5.504-19.91 17.766-14.626 18.472 6.53.869 21.313 3.99 29.152 14.655 10.126 13.776 9.772 44.703 9.772 44.703s5.818 85.213-13.585 95.795c-13.314 7.26-31.582-7.561-70.8-75.327-20.091-34.712-35.265-73.085-35.265-73.085s-2.922-7.17-8.141-11.008c-6.33-4.65-15.175-6.124-15.175-6.124l-93.876.613s-14.09.394-19.267 6.521c-4.606 5.455-.368 16.725-.368 16.725s73.49 171.942 156.711 258.592c76.315 79.454 162.958 74.239 162.958 74.239" fill="#fff" id="svg_2" class="" stroke="#ffffff" stroke-opacity="1"/></g></svg>